<svg xmlns="http://www.w3.org/2000/svg" viewBox="0 0 400 320" fill="none">
  <defs>
    <linearGradient id="sky-gu" x1="0" y1="0" x2="0" y2="1">
      <stop offset="0%" stop-color="#0a0a1a"/>
      <stop offset="100%" stop-color="#1a1a2e"/>
    </linearGradient>
  </defs>
  <rect width="400" height="320" fill="url(#sky-gu)"/>
  <!-- Book body -->
  <rect x="80" y="50" width="240" height="220" rx="6" fill="rgba(255,255,255,0.04)" stroke="rgba(255,255,255,0.1)" stroke-width="2"/>
  <!-- Book spine -->
  <rect x="80" y="50" width="20" height="220" rx="4" fill="rgba(255,255,255,0.05)"/>
  <!-- Book pages -->
  <rect x="100" y="65" width="210" height="190" rx="2" fill="rgba(255,255,255,0.02)"/>
  <!-- Text lines -->
  <rect x="115" y="85" width="120" height="4" rx="2" fill="rgba(255,255,255,0.06)"/>
  <rect x="115" y="100" width="160" height="4" rx="2" fill="rgba(255,255,255,0.04)"/>
  <rect x="115" y="115" width="140" height="4" rx="2" fill="rgba(255,255,255,0.04)"/>
  <rect x="115" y="140" width="100" height="4" rx="2" fill="rgba(255,255,255,0.06)"/>
  <rect x="115" y="155" width="170" height="4" rx="2" fill="rgba(255,255,255,0.04)"/>
  <rect x="115" y="170" width="150" height="4" rx="2" fill="rgba(255,255,255,0.04)"/>
  <rect x="115" y="195" width="110" height="4" rx="2" fill="rgba(255,255,255,0.06)"/>
  <rect x="115" y="210" width="130" height="4" rx="2" fill="rgba(255,255,255,0.04)"/>
  <!-- Bookmark -->
  <path d="M280 50 L280 30 L290 38 L300 30 L300 50" fill="rgba(255,107,107,0.15)"/>
</svg>
